Coordinates
version=1
nRows=43
nColumns=12
inDegrees=yes

Units are S.I. units (second, meters, Newtons, ...)
Angles are in degrees

endheader
time	SC_y	SC_z	SC_x	AC_y	AC_z	AC_x	GH_y	GH_z	GH_yy	EL_x	PS_y
       0.0              -35.35          11.08          24.47          67.72          6.917          1.198         -64.59          60.56         -155.1          99.22          73.61
   0.03519              -35.35          11.08          24.48          67.72          6.916          1.199         -64.58          60.56         -155.1          99.21          73.62
   0.07039              -35.36          11.08          24.48          67.71          6.914            1.2         -64.57          60.55         -155.0           99.2          73.63
    0.1056              -35.36          11.09          24.48          67.71          6.912          1.201         -64.57          60.55         -155.0           99.2          73.63
    0.1408              -35.36          11.09          24.49           67.7          6.911          1.202         -64.56          60.55         -155.0          99.19          73.64
     0.176              -35.36          11.09          24.49           67.7          6.909          1.203         -64.55          60.55         -154.9          99.18          73.65
    0.2112              -35.37           11.1           24.5          67.69          6.907          1.204         -64.54          60.54         -154.9          99.17          73.66
    0.2464              -35.37           11.1           24.5          67.69          6.904          1.205         -64.53          60.54         -154.9          99.16          73.67
    0.2816              -35.37          11.11          24.51          67.68          6.902          1.206         -64.52          60.54         -154.8          99.14          73.68
    0.3167              -35.38          11.11          24.51          67.67            6.9          1.207         -64.51          60.53         -154.8          99.13          73.69
    0.3519              -35.38          11.12          24.52          67.66          6.897          1.208          -64.5          60.53         -154.7          99.12           73.7
    0.3871              -35.38          11.12          24.52          67.66          6.894           1.21         -64.49          60.53         -154.7           99.1          73.71
    0.4223              -35.39          11.13          24.53          67.65          6.891          1.211         -64.47          60.52         -154.6          99.09          73.72
    0.4575              -35.39          11.13          24.54          67.64          6.887          1.213         -64.46          60.52         -154.6          99.07          73.74
    0.4927               -35.4          11.14          24.54          67.63          6.884          1.214         -64.44          60.51         -154.5          99.05          73.75
    0.5279               -35.4          11.15          24.55          67.62           6.88          1.216         -64.42          60.51         -154.4          99.03          73.77
    0.5631              -35.41          11.15          24.56           67.6          6.876          1.218         -64.41           60.5         -154.4          99.01          73.79
    0.5983              -35.42          11.16          24.57          67.59          6.871          1.221         -64.39          60.49         -154.3          98.98          73.81
    0.6335              -35.42          11.17          24.58          67.57          6.866          1.223         -64.36          60.49         -154.2          98.96          73.83
    0.6687              -35.43          11.18           24.6          67.56           6.86          1.226         -64.34          60.48         -154.1          98.93          73.85
    0.7039              -35.44          11.19          24.61          67.54          6.854          1.229         -64.31          60.47         -154.0           98.9          73.88
    0.7391              -35.45          11.21          24.62          67.52          6.847          1.232         -64.28          60.46         -153.9          98.86           73.9
    0.7743              -35.46          11.22          24.64           67.5           6.84          1.236         -64.25          60.45         -153.8          98.82          73.94
    0.8095              -35.47          11.23          24.66          67.48          6.831           1.24         -64.21          60.44         -153.6          98.78          73.97
    0.8447              -35.48          11.25          24.68          67.45          6.822          1.244         -64.17          60.42         -153.5          98.73          74.01
    0.8799               -35.5          11.27           24.7          67.42          6.812          1.249         -64.13          60.41         -153.3          98.68          74.05
     0.915              -35.51          11.29          24.72          67.39            6.8          1.254         -64.08          60.39         -153.1          98.62           74.1
    0.9502              -35.53          11.31          24.75          67.35          6.787          1.261         -64.02          60.37         -152.9          98.55          74.15
    0.9854              -35.55          11.34          24.78          67.31          6.773          1.268         -63.95          60.35         -152.6          98.48          74.21
     1.021              -35.57          11.37          24.82          67.26          6.756          1.276         -63.88          60.33         -152.3          98.39          74.28
     1.056               -35.6          11.41          24.86           67.2          6.737          1.285          -63.8           60.3         -152.0          98.29          74.36
     1.091              -35.63          11.44          24.91          67.14          6.715          1.295          -63.7          60.27         -151.6          98.18          74.45
     1.126              -35.66          11.49          24.96          67.07           6.69          1.307         -63.59          60.24         -151.2          98.05          74.56
     1.161               -35.7          11.54          25.02          66.98          6.661          1.321         -63.46          60.19         -150.7           97.9          74.68
     1.197              -35.75          11.61           25.1          66.88          6.627          1.338         -63.31          60.15         -150.1          97.73          74.82
     1.232               -35.8          11.68          25.18          66.77          6.586          1.357         -63.14          60.09         -149.4          97.52          74.99
     1.267              -35.87          11.77          25.29          66.63          6.538           1.38         -62.93          60.02         -148.6          97.27          75.19
     1.302              -35.94          11.87          25.41          66.46          6.481          1.408         -62.68          59.94         -147.6          96.98          75.43
     1.337              -36.04           12.0          25.56          66.26          6.411          1.441         -62.37          59.84         -146.4          96.62          75.72
     1.373              -36.15          12.15          25.74          66.02          6.326          1.482          -62.0          59.72         -145.0          96.18          76.08
     1.408              -36.29          12.34          25.97          65.72          6.221          1.532         -61.54          59.57         -143.2          95.64          76.51
     1.443              -36.47          12.58          26.25          65.34          6.091          1.595         -60.97          59.39         -141.0          94.97          77.06
     1.478              -36.69          12.87           26.6          64.86          5.926          1.674         -60.24          59.15         -138.2          94.13          77.74
